<!-- Created by nutty7t (https://nutty.world) -->
<svg width="800" height="800" viewBox="0 0 800 800" fill="none" xmlns="http://www.w3.org/2000/svg">
<path d="M552.482 157H243.512C235.319 157 227.747 161.441 223.748 168.598L211.93 189.749C207.468 197.716 207.531 207.133 212.105 214.937C216.847 223.024 225.762 228.053 235.365 228.053C235.853 228.053 236.839 228.011 237.325 227.975C237.824 227.943 238.306 227.89 238.787 227.827C239.712 227.696 240.651 227.633 241.574 227.633C247.147 227.633 252.4 229.992 254.351 233.382C256.128 236.472 254.517 240.902 252.706 244.265C249.508 248.401 245.733 250.414 241.192 250.414C233.72 250.414 226.99 245.111 226.271 241.669C226.16 241.138 226.026 240.608 225.879 240.082C222.853 229.472 213.022 222.036 201.981 222.036C192.037 222.036 183.126 227.99 179.279 237.197C155.613 294.051 151.415 371.149 168.053 443.446C182.176 504.856 217.883 593.225 307.761 665.515C311.776 668.735 316.816 670.507 321.955 670.507C324.596 670.507 327.19 670.049 329.668 669.15C346.899 662.918 372.037 659.334 398.62 659.334C425.108 659.334 449.692 662.877 466.061 669.056C468.62 670.022 471.307 670.507 474.046 670.507C479.19 670.507 484.229 668.735 488.239 665.515C578.116 593.225 613.824 504.856 627.95 443.446C644.582 371.149 640.389 294.051 616.72 237.208C612.884 227.99 603.976 222.036 594.023 222.036C582.977 222.036 573.145 229.472 570.118 240.093C569.971 240.602 569.84 241.128 569.729 241.674C569.009 245.111 562.278 250.414 554.805 250.414C550.26 250.414 546.492 248.401 543.291 244.265C541.478 240.902 539.865 236.477 541.652 233.382C543.596 229.992 548.851 227.633 554.422 227.633C555.346 227.633 556.287 227.696 557.217 227.827C557.695 227.89 558.179 227.943 558.668 227.975C559.162 228.011 560.149 228.053 560.638 228.053C570.239 228.053 579.152 223.024 583.892 214.942C588.469 207.128 588.532 197.711 584.07 189.749L572.247 168.598C568.247 161.441 560.675 157 552.482 157V157ZM552.482 167.069C557.038 167.069 561.237 169.528 563.465 173.501L575.295 194.668C577.99 199.482 577.959 205.162 575.21 209.85C572.268 214.868 566.687 217.985 560.638 217.985L559.398 217.943L558.599 217.864C557.217 217.664 555.814 217.57 554.422 217.57C545.136 217.57 536.696 221.805 532.928 228.363C528.719 235.678 531.546 243.939 534.82 249.751C541.326 258.601 549.261 260.477 554.805 260.477C566.14 260.477 577.717 252.647 579.577 243.724L579.798 242.852C581.595 236.519 587.449 232.11 594.023 232.11C599.899 232.11 605.164 235.626 607.434 241.081C630.32 296.049 634.324 370.865 618.139 441.203C604.371 501.053 569.561 587.192 481.93 657.669C479.66 659.496 476.87 660.443 474.046 660.443C472.555 660.443 471.051 660.176 469.612 659.634C452.151 653.054 426.276 649.276 398.62 649.276C370.912 649.276 344.527 653.075 326.229 659.697C324.84 660.196 323.393 660.443 321.955 660.443C319.127 660.443 316.339 659.492 314.067 657.669C226.435 587.192 191.629 501.053 177.857 441.203C161.673 370.865 165.678 296.049 188.562 241.081C190.842 235.615 196.106 232.11 201.981 232.11C208.552 232.11 214.402 236.519 216.206 242.852L216.42 243.724C218.286 252.652 229.861 260.477 241.192 260.477C246.743 260.477 254.668 258.601 261.176 249.751C264.448 243.939 267.283 235.678 263.073 228.363C259.3 221.805 250.863 217.57 241.574 217.57C240.187 217.57 238.78 217.664 237.399 217.864L236.602 217.943L235.365 217.985C229.315 217.985 223.727 214.863 220.788 209.845C218.039 205.162 218.012 199.482 220.714 194.658L232.532 173.501C234.757 169.528 238.955 167.069 243.512 167.069H552.482Z" fill="#18435B"/>
<path fill-rule="evenodd" clip-rule="evenodd" d="M591.89 246.304C592.421 244.433 595.038 244.023 595.821 245.91C636.195 342.896 622.868 528.184 474.048 647.867C434.559 632.981 363.099 632.981 321.952 647.867C173.127 528.184 159.803 342.896 200.176 245.91C200.962 244.023 203.578 244.433 204.109 246.304C209.182 270.577 250.245 286.867 271.76 256.578C290.078 225.068 263.23 201.584 235.677 205.399C233.145 205.588 230.202 203.449 231.686 200.801L243.512 179.639H552.482L564.311 200.801C565.799 203.449 562.856 205.588 560.323 205.399C532.765 201.584 505.917 225.068 524.236 256.578C545.751 286.867 586.819 270.577 591.89 246.304ZM439.043 272.113C437.705 269.754 435.475 268.132 433.097 268.132C431.016 268.132 429.233 269.164 427.301 270.639C423.585 263.857 414.964 258.993 405.006 258.993C401.587 258.993 398.317 259.435 395.345 260.467C391.332 254.128 384.792 250 377.36 250C366.956 250 358.187 258.108 355.66 269.164C351.201 267.838 346.445 267.101 341.54 267.101C325.934 267.101 312.408 274.029 305.571 284.348C302.301 282.874 298.734 282.137 295.019 282.137C278.52 282.137 265.144 297.911 265.144 317.075C265.144 322.972 266.481 328.721 268.711 333.586C264.846 334.471 262.022 337.566 262.022 341.104C262.022 341.734 262.131 342.256 262.255 342.854C262.276 342.956 262.298 343.061 262.32 343.168C256.82 345.38 252.807 349.507 252.064 354.667C250.578 354.372 248.943 354.225 247.308 354.225C232.742 354.225 221 365.723 221 379.875C221 388.868 225.756 396.828 233.039 401.398C233.485 410.538 240.619 418.204 250.429 420.858C250.132 421.742 249.983 422.921 249.983 423.953C249.983 430.587 254.739 435.894 260.536 435.894C262.468 435.894 264.252 435.452 265.738 434.42C266.779 435.157 267.968 435.452 269.157 435.452C271.386 435.452 273.17 434.42 274.21 432.946C275.696 433.388 277.331 433.536 278.966 433.536C282.236 433.536 285.209 432.799 287.736 431.472C289.519 436.042 293.681 439.285 298.437 439.285C303.193 439.285 307.355 435.894 309.139 431.324C310.476 432.651 312.26 433.388 314.043 433.388C316.867 433.388 319.543 431.472 321.029 428.671C321.921 429.113 322.813 429.261 323.853 429.261C325.637 434.568 329.798 438.99 335.149 441.496C335.298 454.764 348.972 465.525 365.916 465.525C369.929 465.525 373.645 464.936 377.063 463.904C381.669 470.034 381.036 477.243 380.485 483.532C380.36 484.955 380.239 486.332 380.184 487.638C379.739 495.893 378.995 501.201 375.725 512.847C375.003 515.277 374.333 517.827 373.651 520.425C371.105 530.118 368.381 540.492 362.051 547.932C360.66 549.538 359.458 550.99 358.357 552.32C352.989 558.806 350.016 562.398 339.162 566.802C332.889 569.276 327.71 570.767 323.461 571.991C318.851 573.318 315.336 574.33 312.706 575.942C308.053 578.792 309.322 578.518 315.47 577.191C315.999 577.077 316.564 576.955 317.165 576.826C319.632 576.25 322.132 576.049 324.775 575.837C330.252 575.396 336.348 574.906 344.067 570.929C347.788 569.012 350.457 567.437 352.553 566.201C356.902 563.634 358.786 562.523 362.497 562.821C368.145 563.411 366.808 571.224 363.092 577.563C361.432 580.394 361.818 582.46 362.277 584.918C362.846 587.963 363.526 591.609 360.565 598.054C355.214 609.553 357.444 612.354 360.268 609.111C363.092 605.867 365.916 595.548 366.956 589.209C368.145 582.87 369.037 579.627 372.307 574.615C375.725 569.603 381.819 563.264 384.643 564.148C386.075 564.596 386.704 566.749 387.596 569.8C388.464 572.768 389.581 576.586 391.926 580.511C394.413 584.673 398.281 587.506 402.405 590.525C406.168 593.281 410.145 596.192 413.478 600.413C419.05 607.586 427.46 609.881 433.35 611.489C434.844 611.897 436.176 612.261 437.259 612.649C442.461 614.565 441.123 608.079 434.732 606.752C428.341 605.425 422.693 603.951 416.599 595.106C413.769 590.997 410.264 588.193 407.264 585.791C403.804 583.023 401.014 580.789 400.696 577.711C400.546 576.26 400.396 575.11 400.265 574.106C399.877 571.131 399.656 569.442 400.101 565.033C400.696 559.283 406.195 555.303 416.302 560.61C420.044 562.575 421.83 564.5 423.343 566.13C425.915 568.901 427.696 570.82 436.962 570.634C442.498 570.579 445.636 569.793 448.053 569.188C452.061 568.184 454.088 567.676 461.783 571.814C462.896 572.412 463.97 572.992 465.015 573.556C475.551 579.243 482.961 583.242 494.185 586.998C506.373 591.126 508.899 590.094 503.846 587.293C502.652 586.666 500.586 585.693 497.981 584.466C489.56 580.5 475.498 573.878 466.985 567.686C465.715 566.779 464.598 565.967 463.6 565.241C455.835 559.595 455.158 559.102 444.096 558.841C431.611 558.546 429.827 557.957 427.895 551.323C427.267 549.168 427.612 546.935 428.038 544.179C428.922 538.452 430.155 530.469 423.733 516.237C421.269 510.776 419.233 506.709 417.614 503.474C412.983 494.222 411.754 491.768 413.627 482.921C414.964 476.877 424.625 467.294 433.692 459.334C439.637 458.154 445.136 455.648 449.893 452.11C451.825 453.732 454.054 454.616 456.432 454.911C458.216 457.122 460.891 458.597 463.864 458.597C467.431 458.597 470.701 456.533 472.336 453.29C472.782 453.437 473.376 453.437 473.822 453.437H473.822C478.43 453.437 482.294 450.194 482.889 445.919C487.942 445.771 492.699 444.592 496.712 442.675C498.792 445.182 501.765 446.656 505.035 446.656C511.277 446.656 516.48 441.054 516.48 434.273C516.48 433.536 516.48 432.946 516.331 432.356C526.289 430.735 534.464 423.953 538.031 414.666C539.517 414.961 541.004 415.108 542.639 415.108C560.029 415.108 574 397.713 574 376.19C574 363.512 569.095 352.308 561.664 345.232C563.596 343.316 564.636 340.81 564.636 338.009C564.636 332.259 559.88 327.689 554.232 327.689C552.448 327.689 550.813 328.132 549.476 328.869C544.868 320.466 535.504 314.717 524.803 314.717C520.939 314.717 517.371 315.306 514.101 316.633C512.912 288.034 490.766 265.332 463.567 265.332C454.649 265.332 446.325 267.838 439.043 272.113ZM425.071 459.923H426.26C423.055 462.501 419.596 465.13 416.533 467.457C414.342 469.123 412.352 470.635 410.803 471.864C406.748 475.287 407.701 471.955 409.01 467.375C409.957 464.064 411.09 460.101 410.654 457.565C415.113 459.186 420.018 459.923 425.071 459.923Z" fill="#18435B"/>
<path d="M482.598 143H312.404V125.82H482.598V143Z" fill="#18435B"/>
<path d="M470.538 53.3412C471.344 55.3216 471.785 57.4167 471.785 59.5933C471.785 71.4432 458.906 81.0468 443.024 81.0468C427.14 81.0468 414.264 71.4432 414.264 59.5933C414.264 49.0867 424.395 40.3599 437.762 38.5149L397.501 7.99988L357.238 38.5149C370.606 40.3599 380.736 49.0867 380.736 59.5933C380.736 71.4432 367.861 81.0468 351.977 81.0468C336.093 81.0468 323.214 71.4432 323.214 59.5933C323.214 57.4167 323.656 55.3216 324.464 53.3412L263 36.506L312.403 109.968H482.598L532 36.506L470.538 53.3412Z" fill="#18435B"/>
<path fill-rule="evenodd" clip-rule="evenodd" d="M355.198 788.681C355.198 788.681 323.105 710.802 269.086 710.802C215.072 710.802 197.276 756.402 197.276 756.402C197.276 756.402 254.787 788.17 286.565 732.32C286.565 732.32 315.161 733.348 340.263 791.754C340.263 791.754 347.254 793.291 355.198 788.681" fill="#18435B"/>
<path fill-rule="evenodd" clip-rule="evenodd" d="M287.199 703.628C287.199 703.628 280.842 626.778 210.939 613.965C210.939 613.965 233.178 695.434 287.199 703.628Z" fill="#18435B"/>
<path fill-rule="evenodd" clip-rule="evenodd" d="M245.255 694.014C245.255 694.014 190.923 651.491 161.051 721.173C161.051 721.173 212.528 743.201 245.255 694.014Z" fill="#18435B"/>
<path fill-rule="evenodd" clip-rule="evenodd" d="M203.154 658.795C203.154 658.795 209.666 559.654 146.433 520.711C146.433 520.711 145.039 624.488 203.154 658.795" fill="#18435B"/>
<path fill-rule="evenodd" clip-rule="evenodd" d="M188.38 666.739C188.38 666.739 142.303 595.006 80.9805 651.365C80.9805 651.365 138.654 709.995 188.38 666.739Z" fill="#18435B"/>
<path fill-rule="evenodd" clip-rule="evenodd" d="M158.826 621.14C158.826 621.14 142.303 543.257 77.1667 545.305C77.1667 545.305 100.041 632.413 158.826 621.14Z" fill="#18435B"/>
<path fill-rule="evenodd" clip-rule="evenodd" d="M114.979 538.133C114.979 538.133 100.68 454.109 33 444.887C33 444.887 52.0633 531.991 114.979 538.133Z" fill="#18435B"/>
<path fill-rule="evenodd" clip-rule="evenodd" d="M132.138 549.917C132.138 549.917 154.383 477.68 117.996 404.918C117.996 404.918 89.2411 488.435 132.138 549.917Z" fill="#18435B"/>
<path fill-rule="evenodd" clip-rule="evenodd" d="M99.0929 467.94C99.0929 467.94 94.3223 381.35 39.6741 350.607C39.6741 350.607 46.0271 453.594 99.0929 467.94Z" fill="#18435B"/>
<path fill-rule="evenodd" clip-rule="evenodd" d="M96.8661 414.509C96.8661 414.509 81.2973 326.014 130.547 277.342C130.547 277.342 142.303 375.426 96.8661 414.509Z" fill="#18435B"/>
<path fill-rule="evenodd" clip-rule="evenodd" d="M85.1109 379.814C85.1109 379.814 90.1963 293.735 39.6742 253.259C39.6742 253.259 33.9508 340.874 85.1109 379.814Z" fill="#18435B"/>
<path fill-rule="evenodd" clip-rule="evenodd" d="M90.83 316.537C90.83 316.537 116.248 233.793 71.4477 168.206C71.4477 168.206 50.1575 255.307 90.83 316.537Z" fill="#18435B"/>
<path fill-rule="evenodd" clip-rule="evenodd" d="M105.444 280.925C105.444 280.925 109.577 192.799 174.083 173.844C174.083 173.844 160.735 266.068 105.444 280.925Z" fill="#18435B"/>
<path fill-rule="evenodd" clip-rule="evenodd" d="M105.444 230.202C105.444 230.202 137.536 160.009 110.529 81.1047C110.529 81.1047 76.848 150.269 105.444 230.202Z" fill="#18435B"/>
<path fill-rule="evenodd" clip-rule="evenodd" d="M126.417 190.237C126.417 190.237 122.923 101.6 175.988 55.9999C175.988 55.9999 179.16 157.958 126.417 190.237Z" fill="#18435B"/>
<path fill-rule="evenodd" clip-rule="evenodd" d="M444 788.681C444 788.681 476.093 710.802 530.111 710.802C584.126 710.802 601.921 756.402 601.921 756.402C601.921 756.402 544.41 788.17 512.633 732.32C512.633 732.32 484.037 733.348 458.935 791.754C458.935 791.754 451.944 793.291 444 788.681" fill="#18435B"/>
<path fill-rule="evenodd" clip-rule="evenodd" d="M511.999 703.628C511.999 703.628 518.356 626.778 588.258 613.965C588.258 613.965 566.02 695.434 511.999 703.628Z" fill="#18435B"/>
<path fill-rule="evenodd" clip-rule="evenodd" d="M553.943 694.014C553.943 694.014 608.274 651.491 638.146 721.173C638.146 721.173 586.669 743.201 553.943 694.014Z" fill="#18435B"/>
<path fill-rule="evenodd" clip-rule="evenodd" d="M596.044 658.795C596.044 658.795 589.532 559.654 652.765 520.711C652.765 520.711 654.159 624.488 596.044 658.795" fill="#18435B"/>
<path fill-rule="evenodd" clip-rule="evenodd" d="M610.818 666.739C610.818 666.739 656.895 595.006 718.217 651.365C718.217 651.365 660.544 709.995 610.818 666.739Z" fill="#18435B"/>
<path fill-rule="evenodd" clip-rule="evenodd" d="M640.371 621.14C640.371 621.14 656.895 543.257 722.031 545.305C722.031 545.305 699.156 632.413 640.371 621.14Z" fill="#18435B"/>
<path fill-rule="evenodd" clip-rule="evenodd" d="M684.219 538.133C684.219 538.133 698.518 454.109 766.198 444.887C766.198 444.887 747.134 531.991 684.219 538.133Z" fill="#18435B"/>
<path fill-rule="evenodd" clip-rule="evenodd" d="M667.06 549.917C667.06 549.917 644.814 477.68 681.202 404.918C681.202 404.918 709.957 488.435 667.06 549.917Z" fill="#18435B"/>
<path fill-rule="evenodd" clip-rule="evenodd" d="M700.105 467.94C700.105 467.94 704.875 381.35 759.524 350.607C759.524 350.607 753.171 453.594 700.105 467.94Z" fill="#18435B"/>
<path fill-rule="evenodd" clip-rule="evenodd" d="M702.332 414.509C702.332 414.509 717.9 326.014 668.65 277.342C668.65 277.342 656.895 375.426 702.332 414.509Z" fill="#18435B"/>
<path fill-rule="evenodd" clip-rule="evenodd" d="M714.087 379.814C714.087 379.814 709.001 293.735 759.524 253.259C759.524 253.259 765.247 340.874 714.087 379.814Z" fill="#18435B"/>
<path fill-rule="evenodd" clip-rule="evenodd" d="M708.368 316.537C708.368 316.537 682.949 233.793 727.75 168.206C727.75 168.206 749.04 255.307 708.368 316.537Z" fill="#18435B"/>
<path fill-rule="evenodd" clip-rule="evenodd" d="M693.754 280.925C693.754 280.925 689.621 192.799 625.115 173.844C625.115 173.844 638.463 266.068 693.754 280.925Z" fill="#18435B"/>
<path fill-rule="evenodd" clip-rule="evenodd" d="M693.754 230.202C693.754 230.202 661.661 160.009 688.668 81.1047C688.668 81.1047 722.35 150.269 693.754 230.202Z" fill="#18435B"/>
<path fill-rule="evenodd" clip-rule="evenodd" d="M672.781 190.237C672.781 190.237 676.275 101.6 623.209 55.9999C623.209 55.9999 620.038 157.958 672.781 190.237Z" fill="#18435B"/>
</svg>
